<svg width="24" height="24" viewBox="0 0 24 24" fill="none" xmlns="http://www.w3.org/2000/svg">
<path d="M22.5 2.25V18C19.5469 19.0781 18.6562 19.5 16.9219 19.5C13.9688 19.5 12.8438 18 9.89062 18C8.95312 18 8.20312 18.1875 7.5 18.375V15.375C8.20312 15.1875 8.95312 15 9.89062 15C12.8438 15 13.9688 16.5 16.9219 16.5C17.8594 16.5 18.5625 16.3594 19.5 16.0781V6.32812C18.5625 6.60938 17.8594 6.75 16.9219 6.75C13.9688 6.75 12.8438 5.25 9.89062 5.25C7.5 5.25 6.375 6.23438 4.5 6.60938V21C4.5 21.8438 3.84375 22.5 3 22.5C2.15625 22.5 1.5 21.8438 1.5 21V3C1.5 2.15625 2.15625 1.5 3 1.5C3.84375 1.5 4.5 2.15625 4.5 3V3.60938C6.375 3.23438 7.5 2.25 9.89062 2.25C12.8438 2.25 13.9688 3.75 16.9219 3.75C18.6562 3.75 19.5469 3.32812 22.5 2.25Z" fill="#1A1A1A"/>
</svg>