<svg width="32" height="32" viewBox="0 0 32 32" fill="currentColor" xmlns="http://www.w3.org/2000/svg">
  <path fill="currentColor" d="M30 3V24C26.0625 25.4375 24.875 26 22.5625 26C18.625 26 17.125 24 13.1875 24C11.9375 24 10.9375 24.25 10 24.5V20.5C10.9375 20.25 11.9375 20 13.1875 20C17.125 20 18.625 22 22.5625 22C23.8125 22 24.75 21.8125 26 21.4375V8.4375C24.75 8.8125 23.8125 9 22.5625 9C18.625 9 17.125 7 13.1875 7C10 7 8.5 8.3125 6 8.8125V28C6 29.125 5.125 30 4 30C2.875 30 2 29.125 2 28V4C2 2.875 2.875 2 4 2C5.125 2 6 2.875 6 4V4.8125C8.5 4.3125 10 3 13.1875 3C17.125 3 18.625 5 22.5625 5C24.875 5 26.0625 4.4375 30 3Z"/>
</svg>