<svg width="24" height="24" viewBox="0 0 24 24" fill="none" xmlns="http://www.w3.org/2000/svg">
<path d="M0 12C0 5.39062 5.34375 0 12 0C18.6094 0 24 5.39062 24 12C24 18.6562 18.6094 24 12 24C5.34375 24 0 18.6562 0 12ZM7.6875 15.2812C7.40625 14.9531 6.9375 14.9531 6.60938 15.1875C6.28125 15.4688 6.28125 15.9375 6.51562 16.2656C7.59375 17.4844 9.375 18.75 11.9531 18.75C14.5781 18.75 16.3594 17.4844 17.4375 16.2656C17.6719 15.9375 17.6719 15.4688 17.3438 15.1875C17.0156 14.9531 16.5469 14.9531 16.2656 15.2812C15.4219 16.2656 14.0156 17.25 11.9531 17.25C9.9375 17.25 8.53125 16.2656 7.6875 15.2812ZM8.25 8.25C7.40625 8.25 6.75 8.95312 6.75 9.75C6.75 10.5938 7.40625 11.25 8.25 11.25C9.09375 11.25 9.75 10.5938 9.75 9.75C9.75 8.95312 9.09375 8.25 8.25 8.25ZM15.75 11.25C16.5938 11.25 17.25 10.5938 17.25 9.75C17.25 8.95312 16.5938 8.25 15.75 8.25C14.9062 8.25 14.25 8.95312 14.25 9.75C14.25 10.5938 14.9062 11.25 15.75 11.25Z" fill="#1A1A1A"/>
</svg>