<svg width="32" height="32" viewBox="0 0 32 32" fill="currentColor" xmlns="http://www.w3.org/2000/svg">
  <path fill="currentColor" d="M16 22C18.3125 22 19.9375 20.9375 20.875 19.9375C21.4375 19.3125 22.375 19.25 23 19.8125C23.625 20.375 23.625 21.3125 23.0625 21.9375C21.6875 23.4375 19.3125 25 16 25C12.625 25 10.25 23.4375 8.875 21.9375C8.3125 21.3125 8.3125 20.375 8.9375 19.8125C9.5625 19.25 10.5 19.3125 11.0625 19.9375C12 20.9375 13.625 22 16 22ZM13 13C13 14.125 12.125 15 11 15C9.875 15 9 14.125 9 13C9 11.9375 9.875 11 11 11C12.125 11 13 11.9375 13 13ZM19 13C19 11.9375 19.875 11 21 11C22.125 11 23 11.9375 23 13C23 14.125 22.125 15 21 15C19.875 15 19 14.125 19 13ZM32 16C32 24.875 24.8125 32 16 32C7.125 32 0 24.875 0 16C0 7.1875 7.125 0 16 0C24.8125 0 32 7.1875 32 16ZM16 3C8.8125 3 3 8.875 3 16C3 23.1875 8.8125 29 16 29C23.125 29 29 23.1875 29 16C29 8.875 23.125 3 16 3Z"/>
</svg>