<svg width="32" height="32" viewBox="0 0 32 32" fill="currentColor" xmlns="http://www.w3.org/2000/svg">
  <path fill="currentColor" d="M0 16C0 7.1875 7.125 0 16 0C24.8125 0 32 7.1875 32 16C32 24.875 24.8125 32 16 32C7.125 32 0 24.875 0 16ZM10.25 20.375C9.875 19.9375 9.25 19.9375 8.8125 20.25C8.375 20.625 8.375 21.25 8.6875 21.6875C10.125 23.3125 12.5 25 15.9375 25C19.4375 25 21.8125 23.3125 23.25 21.6875C23.5625 21.25 23.5625 20.625 23.125 20.25C22.6875 19.9375 22.0625 19.9375 21.6875 20.375C20.5625 21.6875 18.6875 23 15.9375 23C13.25 23 11.375 21.6875 10.25 20.375ZM11 11C9.875 11 9 11.9375 9 13C9 14.125 9.875 15 11 15C12.125 15 13 14.125 13 13C13 11.9375 12.125 11 11 11ZM21 15C22.125 15 23 14.125 23 13C23 11.9375 22.125 11 21 11C19.875 11 19 11.9375 19 13C19 14.125 19.875 15 21 15Z"/>
</svg>