<svg width="24" height="24" viewBox="0 0 24 24" fill="none" xmlns="http://www.w3.org/2000/svg">
<path d="M12 16.5C13.7344 16.5 14.9531 15.7031 15.6562 14.9531C16.0781 14.4844 16.7812 14.4375 17.25 14.8594C17.7188 15.2812 17.7188 15.9844 17.2969 16.4531C16.2656 17.5781 14.4844 18.75 12 18.75C9.46875 18.75 7.6875 17.5781 6.65625 16.4531C6.23438 15.9844 6.23438 15.2812 6.70312 14.8594C7.17188 14.4375 7.875 14.4844 8.29688 14.9531C9 15.7031 10.2188 16.5 12 16.5ZM9.75 9.75C9.75 10.5938 9.09375 11.25 8.25 11.25C7.40625 11.25 6.75 10.5938 6.75 9.75C6.75 8.95312 7.40625 8.25 8.25 8.25C9.09375 8.25 9.75 8.95312 9.75 9.75ZM14.25 9.75C14.25 8.95312 14.9062 8.25 15.75 8.25C16.5938 8.25 17.25 8.95312 17.25 9.75C17.25 10.5938 16.5938 11.25 15.75 11.25C14.9062 11.25 14.25 10.5938 14.25 9.75ZM24 12C24 18.6562 18.6094 24 12 24C5.34375 24 0 18.6562 0 12C0 5.39062 5.34375 0 12 0C18.6094 0 24 5.39062 24 12ZM12 2.25C6.60938 2.25 2.25 6.65625 2.25 12C2.25 17.3906 6.60938 21.75 12 21.75C17.3438 21.75 21.75 17.3906 21.75 12C21.75 6.65625 17.3438 2.25 12 2.25Z" fill="#1A1A1A"/>
</svg>