<svg version="1.0" xmlns="http://www.w3.org/2000/svg" width="400" height="268" viewBox="0 0 300 201">
    <path d="M69 9.75c.05 7.55 2.2 12 10.5 21.75 3.75 4.4 8.05 10.65 9.55 13.85 3.85 8.1 5.4 5.4 5.45-9.35 0-15.75-4.85-24.15-17.2-30C70 2.6 69 3.05 69 9.75zM128.25 18.1c-10.35 4-21.15 16.45-27.1 31.25-3.95 9.95-4 9.85 1.1 5 6.35-6.05 9.75-8.1 19.8-11.8 11.35-4.25 15.95-7.2 19.9-13 3.35-4.85 6.25-12 5.3-12.95-1.4-1.4-14-.4-19 1.5zM31.5 24.15c-5.2 1.45-5.05 1.2-2.6 5.2 5.55 9 15 14.45 30.25 17.55 9.95 2 14.05 3.65 19.75 7.95l3.4 2.6-.8-2.5c-6.8-22.25-29.7-36.35-50-30.8zM81.35 65.95c-2.3 1-5.2 2.95-6.5 4.2-1.9 1.9-4.4 2.65-13.35 3.95-6.05.9-12.7 2.35-14.75 3.2L43 78.9V107h-3.35C34 107 25 109.2 25 110.55c0 6.2 77.5 9.75 110.35 5.05 22.6-3.25 25.75-6.4 8.15-8.2l-6.5-.7V94.3c0-17.6-.6-18.25-19-20.3-9.35-1.1-10.85-1.55-13.5-4.05-6.3-5.95-15.4-7.55-23.15-4zM51.3 80.35c4.25 1.9 18.75 4.35 32 5.3 4.8.35 9.05 1.1 9.35 1.65.8 1.25-20.4 0-31.5-1.9C51.1 83.65 46 81.65 46 79.45c0-.9.35-1.45.75-1.25.4.25 2.45 1.2 4.55 2.15zm75.5 18.4c.25 12.25.25 12.25-2.25 13.4-4.7 2.15-5.55.1-5.55-13.1 0-12.95.1-13.25 4.45-12.85l3.05.3.3 12.25zM232.1 95.85c-6.15 1.8-6.55 3.75-6.9 32.7l-.3 26.45H238v-20h9v20h13v-52.95l-2.9-3.3c-3.05-3.35-17.7-5.1-25-2.9zM247 115v11h-9v-22h9v11zM180.65 96.65c-.35.4-.65 13.65-.65 29.5V155h13v-23h10v23h13V96h-13v25h-10V96h-5.85c-3.2 0-6.1.3-6.5.65zM266 101.5v5.5h10v48h13v-48h9V96h-32v5.5zM10.9 113.35c-13.15 5.9-4.2 13.95 20.15 18.15 10.45 1.8 11.25 1.5 10.75-4.1l-.3-3.85-10.5-2.3c-10.7-2.3-15.6-4.75-15.35-7.65.15-1.85-1.1-1.9-4.75-.25zM163.8 114.25c-.4 3.05-5.25 5.2-16.55 7.35l-9.25 1.75V133.2l4.25-.7c29.05-4.6 38.55-10.9 27.75-18.25-4.15-2.85-5.8-2.85-6.2 0zM118.5 125.2c-4.95.55-22.4.75-38.75.45L50 125.2v48.3l19.4 10.25C80.05 189.4 89.35 194 90 194c1.05 0 31.55-15.9 37.75-19.7 2.7-1.6 3.65-50.45 1-50.15-.7.05-5.3.55-10.25 1.05zm-41.6 15.35c5.7 4.8 4.75 13.5-1.85 16.95-7.5 3.85-15-.8-15.05-9.35 0-9 9.9-13.5 16.9-7.6zm40.2.35c5.75 5.8 2.85 15.85-5.05 17.6-4.1.9-9.6-1.75-11.55-5.55-5.3-10.25 8.4-20.2 16.6-12.05zM32 148.85v12.8l4.35 3.15c5.7 4.1 5.65 4.25 5.65-12.85v-14.7l-3.1-.65c-7.2-1.4-6.9-1.95-6.9 12.25zM139.25 136.65c-1.2.5-2 31.35-.8 31.35 6.65 0 11.9-8.05 10.6-16.2-.55-3.45-1.05-8.45-1.05-11.05V136l-3.75.1c-2.05 0-4.3.3-5 .55z"/>
</svg>