<svg version="1.0" xmlns="http://www.w3.org/2000/svg" width="400" height="238.667" viewBox="0 0 300 179">
    <path d="M82 12.8C62.2 18 50.2 33 46.6 57.1l-1.3 8.4-.7-7.7c-1-9 .4-18.4 3.9-27 2.1-5.2 2.2-5.7.5-4.8-3.2 1.7-10.5 10.6-13.8 16.7-6.3 11.8-7.5 24.2-3.6 37.2l1.5 5.2 4.9-4.4c8.7-7.9 24.4-12.3 35-9.8 4.4 1 4.4 1 9.2-3.5 2.7-2.5 7.4-5.7 10.6-7.2 5-2.4 6.9-2.7 15.7-2.7 8.7 0 10.7.3 15.6 2.6 7.1 3.4 12.9 8.6 16 14.4 1.3 2.5 2.7 4.5 3 4.5 1.4 0 3.1-13.5 2.7-20-.7-8.8-4.3-16.6-10.4-21.9-5.7-5-11.8-7.1-21.3-7.2l-7.6-.1 5.5-2.6c4.7-2.3 6.7-2.6 14.3-2.6l8.9.1-4.9-2.8C111 10.8 86.8 16.3 70.9 35.3c-2.7 3.2-4.9 5.6-4.9 5.3 0-.4 1.2-2.9 2.6-5.7 4.7-9.3 14.5-18.2 24.3-22l4.6-1.8H93c-2.5 0-7.4.8-11 1.7z"/>
    <path d="M55 77.5c-16.8 4.7-30.6 21.1-31.8 37.6-.4 6-.7 6.8-3.1 8-3.8 2-16 9.9-16.6 10.9-.5.8 9.2 3.3 17.2 4.5 4 .6 4.3.5 5.6-2.7 3-7 10.8-11 17.5-9 9 2.7 13.4 13 9.3 21.6-2.5 5-5.2 7.2-10.4 8.1-4.8.9-9.1-.2-12.7-3.2l-3-2.5v16.1l3.8 1.1c18.6 5.1 19.8 5.3 36 5.7 16 .4 27.5-.8 37-3.8l3.2-1.1V120l3.3-1.4c1.9-.7 4.3-1.7 5.5-2l2.2-.7V169h5.4c3 0 6.1.3 7 .6 1.4.5 1.6-1.2 1.6-15V139h25.8l-.1 14.9-.2 15 6.8.3 6.7.3V97.3l-6.7.1-6.8.1.2 14.2.2 14.3H132v-10.4c0-8 .3-10.6 1.5-11.6 2.5-2.1 1.9-6.7-1.2-8.7-4.4-2.9-21.6-3.1-34.5-.3-13.6 2.9-30.5 8.1-44.6 13.6-6.3 2.5-11.6 4.4-11.8 4.1-.2-.2 4.2-2.7 9.8-5.4 10.6-5.2 28.8-11.7 41.6-14.8 3.9-.9 7.2-2.1 7.2-2.5 0-1.7-7.7-7.4-13.8-10.3-5.5-2.6-7.9-3.1-16.1-3.4-6.5-.2-11.4.2-15.1 1.2zm23.8 44.7c1.7 1.7 1.6 23.8-.1 26.2-1.9 2.6-5.9 1.7-6.8-1.4-1.1-3.9-1-20.6.1-23.4 1-2.8 4.7-3.5 6.8-1.4zm24.2.7c.5 1.1 1 6.8 1 12.6 0 11.3-.9 14.5-4 14.5s-4-3.2-4-14.5.9-14.5 4-14.5c1.1 0 2.4.9 3 1.9zM206 98.4c0 .7-5.5 16.7-12.3 35.6-6.8 19-12.1 34.6-11.8 34.7.3.1 3.6.3 7.3.6l6.7.5 2.6-7.9 2.7-7.9h24.4l2.4 7.5 2.4 7.5h7.8c4.3 0 7.8-.2 7.8-.3 0-.2-5.6-16-12.5-35-6.9-19.1-12.5-35-12.5-35.5 0-.4-3.4-.8-7.5-.8-4.9-.1-7.5.3-7.5 1zm11.4 30.2c2.1 6.3 3.6 11.8 3.3 12-.2.3-3.8.4-7.9.2l-7.5-.3 3.6-11.7c2-6.5 3.8-11.8 4.1-11.8.3 0 2.3 5.2 4.4 11.6zM248 104v6.5l9-.3 9-.3v58.9l7.5.4 7.5.3V110h18V97.5h-51v6.5z"/>
    <path d="M33.5 135.5c-4.4 4.3-2.6 12.4 3.2 14.6 3.7 1.4 9-.6 10.8-4.1 2.1-4.1 1.9-6.4-1.1-9.9-3.4-4.1-9.2-4.4-12.9-.6z"/>
</svg>