<svg version="1.0" xmlns="http://www.w3.org/2000/svg" width="400" height="400" viewBox="0 0 300 300">
    <path d="M21.5 74c2.2 1.2 5.3 3.5 7 5.1 4.1 4.1 2.5 5.2-6.5 4.7l-7.2-.4 3.8 3.3C22.2 89.8 32.9 94 37 94c3.6 0 2.9 1.8-.9 2.4-2.1.3-4.4 1.3-5.1 2.1-1.1 1.3-.6 1.5 3.6 1.5 2.7 0 6.9.9 9.3 2 3.8 1.8 4.6 1.8 6 .6.9-.7 2.6-1.7 3.9-2 3.4-1.1 3.4-9.5-.1-16.1l-2.1-4-.6 4-.5 4-1.1-3c-1.7-4.5-6.1-9.3-10.8-11.7-3.8-1.9-4-1.9-2.5-.2 3.3 3.9 2.9 4.3-1.9 1.8-2.8-1.5-7.3-2.7-10.8-3.1l-5.9-.5 4 2.2zM55.1 102.7C44.5 106.6 36 119.5 36 131.9v5.9l-5 3.2c-5 3.2-14 12.3-14 14.2 0 2.2 2.2 4.7 5.1 5.7 5.3 1.8 7.6 1.4 10-2 2.6-3.6 8.1-6.3 11.2-5.3 9.7 2.9 14.4 19.4 8.4 29.6l-2.6 4.6 5.7 5.4c7 6.6 13.2 10.9 21.4 14.8 11.2 5.3 16.4 3.6 21.8-7.1 1.7-3.2 3-6.1 3-6.4 0-.3-4.3-.5-9.6-.5-6.1 0-9.3-.4-8.9-1 .3-.6 4.8-1 10-1 10.6 0 9.6.9 11.7-10 1.2-6.6 1.5-36.9.4-41.5l-.6-2.4-3.3 1.8c-3.1 1.8-10.7 3.7-10.7 2.7 0-.3 1.9-1.4 4.3-2.4 2.4-1.1 5.9-3.6 7.9-5.6 1.9-2 3.9-3.6 4.4-3.6.5 0 1 4.1 1.1 9.1.2 5.1.5 9.4.8 9.8 1 .9 13.4-5.9 16.6-9.2 2.1-2 2.9-3.7 2.7-5.5-1.3-11-43-8.9-74.3 3.7-10.8 4.4-18.3 8.7-26.7 15.4-3.3 2.7-6.2 4.6-6.4 4.4-.3-.2 2.8-3.5 6.8-7.2 12.1-11.2 36.1-21.6 56.8-24.7 12.6-1.9 10.7-3-4-2.5-11.5.4-14.9.9-23 3.5-10.5 3.4-9.7 1.9 1.5-2.7 8.8-3.7 19.2-5.4 29.5-4.9 7.5.3 7.8.2 6.8-1.6-2.2-4.2-10.5-11.9-15.3-14.4-6.4-3.2-17.8-4-24.4-1.5zm25.1 52.4c2.4 1.3 4.8 6.7 4.8 10.9 0 4.4-2.6 8.9-5.6 9.6-7.2 1.8-11.2-12.9-5.3-19.2 2.5-2.7 3.2-2.8 6.1-1.3zm22.5 2.9c1.5 3 1.7 10.9.3 14.5-2.2 5.8-7 .6-7-7.7 0-8.7 3.8-12.6 6.7-6.8zM136.2 157.7l.3 45.8h14l.3-20.8.2-20.7h15l.2 20.7.3 20.8h14l.3-45.8.2-45.7h-15v37h-15v-37h-15l.2 45.7zM202.5 113.2c-.5 1.7-14.5 87.9-14.5 89.5 0 1.5 11.5 1.8 12.5.4.3-.5 1-4.6 1.7-9l1.1-8.1h16.6l.6 3.2c.3 1.8.9 5.8 1.3 8.8l.7 5.5 6.4.3c3.5.2 6.7-.1 7.1-.5.6-.6-8.7-60.9-13.5-88.1l-.6-3.2h-9.5c-6.7 0-9.6.4-9.9 1.2zm12.5 36.2c1.6 11.5 3 21.5 3 22.2 0 1.1-1.6 1.4-6.6 1.4-5.7 0-6.5-.2-6-1.8.2-.9 1.7-11 3.2-22.4 1.5-11.4 2.9-20.6 3.1-20.5.1.2 1.6 9.7 3.3 21.1zM234 118.5v6.5h15l.2 39.2.3 39.3 6.7.3 6.8.3.2-39.3.3-39.3 7.8-.3 7.7-.3V112h-45v6.5z"/><path d="M37.4 157.2c-.4.7-.3.8.4.4 1.8-1.1 7.6 1.9 10.5 5.3 1.5 1.8 2.7 2.7 2.7 2.1 0-2.1-3-6.9-4.9-8-2.6-1.4-7.8-1.3-8.7.2zM33 162c-2.7 2.7-2.5 3.8.4 3.3 5.2-1 8.7 9.2 5 14.5-.8 1.2-2.2 2.2-3.1 2.2-1.4 0-1.4.2.1 1.9 4.5 5 12.2 3 15-3.9 2.1-5.2 2.1-7.4 0-6.6-.9.3-2.2.6-3 .6-.8 0-1.4.9-1.4 1.9 0 1.1-.4 2.2-.9 2.6-.6.3-.8-.8-.4-2.8.7-4.7-1.3-11.3-4.4-13.6-3.2-2.6-4.8-2.6-7.3-.1zM107.8 171.2c-.3 4.6-.4 8.5-.3 8.6.2.2.9-.7 1.6-2 1.6-2.8 1.7-12.4.2-13.9-.7-.7-1.2 1.3-1.5 7.3z"/><path d="M30 169.6c-1.8 4.6-.7 8.4 3 10.4 2.6 1.4 6-1.9 6-5.8 0-6.4-7-10-9-4.6z"/>
</svg>