<svg width="48" height="48" viewBox="0 0 48 48" fill="none" xmlns="http://www.w3.org/2000/svg">
<path fill-rule="evenodd" clip-rule="evenodd" d="M16.3488 1.08902C12.2017 2.53467 9.4244 4.39968 6.2487 7.87182C-0.663891 15.4292 -1.96036 26.3142 2.95543 35.5203C4.94659 39.2488 9.59025 43.6452 13.5115 45.5138C25.8066 51.3723 39.7776 46.5627 45.8189 34.392L48 29.9986L47.9908 24.0637C47.9836 19.0788 47.7931 17.6577 46.8006 15.1862C44.3694 9.12883 38.9612 3.74093 32.9887 1.42428C28.4555 -0.333575 20.8692 -0.486343 16.3488 1.08902ZM33.4098 3.92907C41.6142 7.83901 46.1808 15.0668 46.1968 24.1688C46.2199 37.3869 33.8929 47.8407 20.8764 45.641C9.21029 43.6688 1.31084 33.7983 2.18576 22.2859C2.85992 13.4202 8.50276 6.06116 16.8736 3.13139C19.7386 2.12866 21.0428 1.97179 25.1586 2.13327C29.3381 2.29783 30.5303 2.55723 33.4098 3.92907ZM22.5842 6.93727C19.7078 8.05843 18.4421 11.182 19.7494 13.9328C22.0784 18.8332 29.259 16.9949 29.259 11.4978C29.259 8.81919 25.0806 5.96427 22.5842 6.93727ZM26.1783 9.67018C28.17 11.6587 26.8823 14.7966 24.0742 14.7966C22.5456 14.7966 21.0438 13.2156 21.0438 11.6064C21.0438 10.3833 22.8517 8.64489 24.1245 8.64489C24.6893 8.64489 25.6135 9.10627 26.1783 9.67018ZM8.72097 16.3346C7.80189 18.0489 8.96178 19.2633 13.8668 21.723C20.1381 24.8675 20.1406 24.8824 16.0787 33.9398C13.7682 39.0914 13.6131 40.6329 15.3496 41.1835C16.91 41.6777 17.8024 40.9959 20.248 37.4386C23.2429 33.0837 23.9078 32.2266 24.294 32.2266C24.466 32.2266 25.7563 33.9275 27.1616 36.0068C28.5669 38.0861 30.0924 40.1623 30.5514 40.6206C31.7503 41.8176 33.2999 41.6485 33.9381 40.25C34.3976 39.2431 34.1014 38.1435 32.1302 33.5354C30.6885 30.1662 29.7725 27.2554 29.7725 26.0451C29.7725 24.0688 29.7812 24.0606 34.4901 21.6097C39.5902 18.9552 40.6443 17.9197 39.7298 16.4627C38.879 15.1078 37.5051 15.1268 32.5456 16.5627C26.5501 18.298 21.7118 18.3093 15.8831 16.6017C10.6002 15.054 9.43056 15.0104 8.72097 16.3346ZM16.0007 18.6399C22.0589 20.2604 25.8066 20.2568 32.1015 18.6235C34.8567 17.9089 37.3659 17.4127 37.6776 17.5203C37.9892 17.6285 36.0494 18.8188 33.3666 20.1656C30.6839 21.5128 28.3189 22.8744 28.1115 23.1912C27.0907 24.7517 27.7829 28.4022 30.0456 33.398C31.3257 36.2237 32.293 38.7751 32.1949 39.0683C32.0974 39.361 30.5534 37.5381 28.7651 35.0169C26.9762 32.4952 25.271 30.2754 24.9748 30.0837C23.9936 29.448 22.712 30.6281 19.7319 34.9103C16.1943 39.9937 16.4859 39.6374 16.1429 39.2949C15.9889 39.1416 16.9131 36.6512 18.1967 33.7609C20.6685 28.1951 21.2523 24.3057 19.829 22.8846C19.4434 22.4996 17.2484 21.2831 14.9512 20.1809C12.654 19.0788 10.7748 17.993 10.7748 17.7684C10.7748 17.2214 10.5694 17.1876 16.0007 18.6399Z" fill="black"/>
</svg>
