<svg width="48" height="48" viewBox="0 0 48 48" fill="none" xmlns="http://www.w3.org/2000/svg">
<path fill-rule="evenodd" clip-rule="evenodd" d="M18.4345 0.675869C6.41327 3.28355 -1.51799 14.9303 0.2448 27.3853C1.69293 37.6183 9.92031 45.9246 20.3451 47.6783C33.1692 49.8351 45.4114 40.9198 47.6712 27.7782C48.953 20.3243 46.4347 12.5126 41.0366 7.20071C37.406 3.62812 33.8063 1.64232 29.1931 0.667139C24.9707 -0.224853 22.5786 -0.2228 18.4345 0.675869ZM28.0395 2.48348C32.1485 3.26044 35.9429 5.20464 39.0282 8.11427C47.9019 16.4827 48.2794 30.2749 39.8774 39.1337C29.2662 50.3214 11.1599 47.4862 4.29308 33.5615C2.7162 30.3643 2.50815 29.4451 2.35057 24.9789C2.21873 21.2282 2.39846 19.2978 3.07103 17.2622C5.4724 9.99018 11.2994 4.5309 18.5174 2.79056C22.2784 1.88368 24.4902 1.8123 28.0395 2.48348ZM13.1225 8.85221C12.66 9.40836 12.7831 12.716 13.6539 23.1025C14.2776 30.5419 15.0125 36.9179 15.2864 37.2707C16.2021 38.4487 17.4787 37.9347 20.014 35.3681C21.3962 33.9687 22.6991 32.9293 22.9092 33.0587C23.1193 33.1887 24.6015 35.2576 26.2031 37.6573C28.245 40.7185 29.4227 42.0208 30.1473 42.0208C31.8864 42.0208 35.7436 39.0505 35.7436 37.7118C35.7436 37.0632 34.5849 34.8879 33.1687 32.8769C31.7525 30.866 30.5938 29.0106 30.5938 28.7544C30.5938 28.4976 31.7927 28.1294 33.2578 27.9353C34.7229 27.7417 36.3451 27.3571 36.8627 27.0808C39.0565 25.9105 37.9179 24.734 26.5187 16.3892C20.3127 11.8455 14.895 8.12814 14.48 8.12814C14.0649 8.12814 13.4541 8.45423 13.1225 8.85221ZM24.843 17.691C30.1303 21.5383 34.6514 24.8644 34.8903 25.0822C35.1288 25.2999 33.6574 25.7749 31.6202 26.138C29.5829 26.501 27.8026 27.0931 27.6641 27.4536C27.525 27.8141 28.8784 30.2236 30.6711 32.8071L33.9304 37.5053L32.3906 38.7332C31.544 39.409 30.705 39.9626 30.5263 39.9641C30.3476 39.9656 28.7254 37.778 26.9215 35.1026C25.1175 32.4271 23.3011 30.2318 22.885 30.2241C22.4694 30.2164 20.9049 31.4149 19.4089 32.8882C17.9134 34.3615 16.6893 35.2998 16.6893 34.9732C16.6893 33.9009 15.1778 15.6297 14.8822 13.135C14.7236 11.7932 14.7369 10.6958 14.912 10.6958C15.0871 10.6958 19.5562 13.8437 24.843 17.691Z" fill="black"/>
</svg>
