<svg width="48" height="48" viewBox="0 0 48 48" fill="none" xmlns="http://www.w3.org/2000/svg">
<path fill-rule="evenodd" clip-rule="evenodd" d="M16.6497 1.25106C9.78761 3.58828 4.95263 7.80937 1.91699 14.1136C0.519823 17.0148 0.232555 18.2888 0.0429579 22.4149C-0.233342 28.428 0.80918 32.7269 3.5774 36.9892C8.57012 44.6764 15.8756 48.3789 25.2426 47.9694C29.4017 47.7878 30.519 47.5207 33.916 45.8962C43.0543 41.5253 48 33.8579 48 24.0619C48 7.7405 31.9292 -3.95291 16.6497 1.25106ZM33.0083 4.11103C43.3656 8.95241 48.3975 20.374 44.8312 30.9479C41.526 40.748 33.0584 46.3959 22.4582 45.8711C16.4998 45.5758 12.3448 43.6508 8.12146 39.2283C3.16426 34.0368 1.20457 27.946 2.16195 20.7048C3.01279 14.2717 7.45813 8.03265 13.473 4.83045C17.6222 2.62157 19.8007 2.15934 25.1094 2.36281C28.8283 2.50575 30.2432 2.81877 33.0083 4.11103ZM21.3964 8.2742C19.5239 10.5431 17.9659 14.2785 18.4098 15.434C18.9379 16.8087 19.5176 16.3282 20.4327 13.7583C20.9179 12.3951 21.6706 10.8107 22.1051 10.2368C22.8249 9.28787 22.8975 9.80592 22.9105 15.9756L22.9257 22.7577L21.949 21.1926C19.7375 17.6481 13.9958 14.0359 10.4196 13.9388L8.56594 13.8887L8.63175 17.5808C8.74195 23.7134 11.5128 28.3894 16.3791 30.6526C17.8301 31.3277 20.0086 31.8796 21.2318 31.8822L23.4516 31.8874L23.4631 29.1485C23.4772 25.7392 24.7929 22.7618 27.6572 19.6582C29.7016 17.4431 29.829 17.1322 29.5099 15.1382C29.3213 13.9602 28.7948 12.2584 28.3399 11.3559C27.3188 9.33012 24.5161 6.32408 23.6486 6.32408C23.295 6.32408 22.2812 7.20158 21.3964 8.2742ZM26.5291 11.9678C28.4224 15.7037 28.3906 16.8442 26.34 18.8298L24.4963 20.6145V15.0036C24.4963 9.03432 24.807 8.56948 26.5291 11.9678ZM34.7298 16.4847C30.7989 18.0989 28.2966 20.1215 26.3374 23.2679C25.0708 25.302 24.7517 26.4497 24.6086 29.4777C24.5124 31.5202 24.1886 33.8266 23.8888 34.6029C23.413 35.8357 23.1372 35.9744 21.7009 35.7011C19.4043 35.2649 16.3279 33.6524 15.9592 32.6924C15.4567 31.385 13.5258 31.6798 13.5404 33.0613C13.5503 33.9742 14.2173 34.5455 16.5436 35.6333C18.1884 36.4017 20.416 37.1911 21.493 37.3867C23.1101 37.6804 23.4516 37.9595 23.4516 38.9883C23.4516 40.5915 21.9532 40.6358 17.981 39.1516C12.7324 37.19 6.85696 29.8961 8.18361 26.9887C8.89186 25.4356 8.08698 24.0619 6.46888 24.0619C4.61522 24.0619 3.90541 25.7215 5.09888 27.2667C5.62118 27.9429 6.32159 29.2956 6.65535 30.2728C8.60668 35.9844 16.1326 41.5118 22.5099 41.9177L24.7574 42.0606L25.0186 38.7102C25.2667 35.5268 25.3575 35.3369 26.8466 34.894C34.9011 32.4999 38.2365 29.2753 39.6974 22.4702C40.4402 19.0124 39.9131 15.1883 38.6972 15.2055C38.212 15.2123 36.4268 15.7877 34.7298 16.4847ZM15.6766 17.7269C18.8214 19.7188 21.141 22.6309 21.8623 25.4924C22.1877 26.7842 22.3647 27.9298 22.2556 28.0389C22.0686 28.2256 12.9434 17.4775 12.5705 16.6313C12.2304 15.8597 13.355 16.2567 15.6766 17.7269ZM16.0245 23.4369C18.9776 27.0747 21.1535 30.1309 20.8605 30.2284C19.771 30.5915 16.4637 29.0974 14.5667 27.3857C13.4892 26.4137 12.1385 24.5054 11.5645 23.1448C10.37 20.3119 9.6257 16.7425 10.2399 16.7905C10.4682 16.8082 13.0713 19.7991 16.0245 23.4369ZM36.1437 18.4985C35.9139 18.8819 33.6105 21.9699 31.0251 25.3604C27.1501 30.4423 26.293 31.3141 26.1473 30.3255C25.8297 28.1719 27.2055 24.6196 29.2597 22.2887C31.6691 19.5549 37.4014 16.3987 36.1437 18.4985ZM37.3664 24.3436C36.9344 25.6098 35.9671 27.4498 35.2176 28.4317C33.8565 30.2138 28.4971 33.4494 27.898 32.8505C27.7241 32.6768 29.8844 29.5132 32.6985 25.8201C37.3502 19.7156 37.8302 19.2393 37.9837 20.5733C38.0762 21.3804 37.7983 23.077 37.3664 24.3436ZM6.97134 26.1931C6.80316 26.4649 6.44329 26.5499 6.17117 26.3819C5.89905 26.2139 5.81391 25.8545 5.98209 25.5827C6.15028 25.3109 6.51014 25.2258 6.78227 25.3938C7.05439 25.5618 7.13952 25.9213 6.97134 26.1931ZM39.6922 28.1865C39.0597 28.8183 38.809 29.6217 38.9746 30.4872C39.3658 32.5323 35.0155 36.9897 32.417 37.2062C30.777 37.3423 30.4798 37.5662 30.3409 38.765C30.2286 39.737 30.496 40.3338 31.2173 40.7193C32.2452 41.2692 33.8978 40.9922 33.8978 40.2701C33.8978 40.0641 35.1314 38.5908 36.6399 36.9965C42.7315 30.5566 43.3196 29.7699 42.7869 28.7755C42.0201 27.345 40.7723 27.1076 39.6922 28.1865ZM41.4435 29.845C41.2753 30.1168 40.9155 30.2018 40.6433 30.0338C40.3712 29.8658 40.2861 29.5064 40.4543 29.2346C40.6224 28.9628 40.9823 28.8777 41.2544 29.0457C41.5265 29.2137 41.6117 29.5732 41.4435 29.845ZM32.8531 39.1913C32.8531 39.4782 32.6181 39.713 32.3308 39.713C32.0436 39.713 31.8085 39.4782 31.8085 39.1913C31.8085 38.9043 32.0436 38.6696 32.3308 38.6696C32.6181 38.6696 32.8531 38.9043 32.8531 39.1913Z" fill="black"/>
</svg>
