<svg width="48" height="48" viewBox="0 0 48 48" fill="none" xmlns="http://www.w3.org/2000/svg">
<path fill-rule="evenodd" clip-rule="evenodd" d="M18.0502 0.672254C9.00891 2.87126 1.73153 10.8734 0.281098 20.2102C-2.16889 35.9838 11.7754 50.1675 27.3318 47.7245C43.478 45.1896 52.5677 28.2667 45.6681 13.5869C40.9472 3.54196 29.0756 -2.00949 18.0502 0.672254ZM29.3556 2.8004C33.6086 3.90555 36.9511 5.85652 39.8736 8.93986C48.2853 17.814 48.065 31.0173 39.3625 39.5704C30.7005 48.0835 17.4155 48.1877 8.81486 39.8097C0.041246 31.2633 -0.265516 17.7282 8.11333 8.88902C13.6675 3.02892 21.5465 0.770855 29.3556 2.8004ZM20.3663 8.84896C18.8094 9.72148 15.9142 11.0341 13.9326 11.7654L10.3296 13.096V21.2917C10.3296 29.4176 10.343 29.5115 11.8562 32.238C13.6093 35.3958 16.9693 38.5474 20.478 40.3258C23.6887 41.9533 24.5761 41.8865 28.0936 39.7548C32.0784 37.3395 34.622 34.6917 36.23 31.2853C37.3932 28.8219 37.5903 27.6268 37.7751 21.9311C38.0469 13.5484 37.9352 13.1345 35.1769 12.3103C33.9679 11.9487 30.9563 10.6397 28.4842 9.40102C26.0126 8.16235 23.8112 7.17428 23.5935 7.20561C23.3753 7.23693 21.9233 7.97644 20.3663 8.84896ZM34.2726 14.2643L35.9114 14.8344L35.7153 21.3908C35.5557 26.7225 35.3123 28.4002 34.4126 30.3712C33.0887 33.2702 29.6124 36.7705 26.3389 38.5012L23.9605 39.7589L21.1173 38.2747C17.5931 36.4357 14.0334 32.5646 12.9505 29.3934C12.3792 27.7198 12.1311 25.1171 12.1311 20.79V14.5858L15.348 13.4303C17.1175 12.7951 19.7147 11.6154 21.1199 10.8097L23.6754 9.34402L28.1543 11.5194C30.6182 12.7155 33.3713 13.9511 34.2726 14.2643ZM21.4524 15.5687C20.0416 16.3488 18.867 18.2263 18.8402 19.7449C18.8305 20.3175 18.359 21.1818 17.7928 21.6656C16.9158 22.4148 16.7634 23.1805 16.7634 26.8354C16.7634 32.6493 16.9791 32.826 24.0753 32.826C30.8745 32.826 30.9177 32.7864 30.9177 26.5484C30.9177 22.8426 30.7571 21.8797 30.0757 21.4992C29.6124 21.2403 29.0833 20.2307 28.9001 19.255C28.2552 15.8245 24.4212 13.9264 21.4524 15.5687ZM26.0281 17.9331C26.5942 18.498 27.0575 19.4224 27.0575 19.9873C27.0575 20.9004 26.7142 21.0144 23.9693 21.0144C21.143 21.0144 20.881 20.9199 20.881 19.8995C20.881 17.2167 24.0835 15.9929 26.0281 17.9331ZM28.3442 31.0286H19.0796L18.779 23.0686H28.6448L28.3442 31.0286ZM22.7324 25.5562C22.5847 25.7945 22.6012 26.8344 22.769 27.8672C23.1936 30.4755 24.7449 30.4755 25.1695 27.8672C25.3373 26.8344 25.3538 25.7945 25.2061 25.5562C24.8587 24.9944 23.0798 24.9944 22.7324 25.5562Z" fill="black"/>
</svg>
