<?xml version="1.0" encoding="UTF-8"?>
<svg version="1.1" xmlns="http://www.w3.org/2000/svg" width="455" height="123">
<path d="M0 0 C1.71123047 -0.02416992 1.71123047 -0.02416992 3.45703125 -0.04882812 C4.55402344 -0.04947266 5.65101563 -0.05011719 6.78125 -0.05078125 C7.78220703 -0.05376221 8.78316406 -0.05674316 9.81445312 -0.05981445 C13.05081757 0.38886335 14.36367535 0.81761823 16.5 3.3125 C16.85669893 5.95955128 16.96776797 8.18485676 16.890625 10.82421875 C16.88496521 11.55244339 16.87930542 12.28066803 16.87347412 13.03096008 C16.85110029 15.35464498 16.80090669 17.67678207 16.75 20 C16.72993609 21.57614959 16.71168512 23.15232337 16.6953125 24.72851562 C16.65463422 28.59091824 16.57635956 32.44997911 16.5 36.3125 C23.76 36.3125 31.02 36.3125 38.5 36.3125 C38.46519531 34.03730469 38.43039063 31.76210938 38.39453125 29.41796875 C38.3711334 27.21379857 38.35291821 25.00964224 38.33520508 22.80541992 C38.32012064 21.27378139 38.29965022 19.74218602 38.27368164 18.21069336 C38.23728153 16.00884346 38.22027087 13.80756467 38.20703125 11.60546875 C38.19154739 10.92099167 38.17606354 10.23651459 38.16011047 9.53129578 C38.15842823 4.77664737 38.15842823 4.77664737 39.89331055 2.41918945 C44.66130752 -0.86501208 50.27430877 0.0874474 55.875 0.0625 C57.59976563 0.0315625 57.59976563 0.0315625 59.359375 0 C60.46539062 -0.00515625 61.57140625 -0.0103125 62.7109375 -0.015625 C64.23146729 -0.02964355 64.23146729 -0.02964355 65.78271484 -0.04394531 C69.09446512 0.39048015 70.34644816 0.72767648 72.5 3.3125 C73.00285846 6.33064375 73.21334464 8.98170878 73.265625 12.01953125 C73.29464905 12.96407669 73.3236731 13.90862213 73.35357666 14.88179016 C73.72391941 29.81617288 73.50213562 44.76966085 73.31298828 59.70532227 C73.25713778 64.16592943 73.22108802 68.62647855 73.18935776 73.08731365 C73.16158542 76.54718734 73.12056003 80.00681006 73.07575226 83.46650124 C73.05659545 85.11350439 73.04227982 86.76057139 73.03295135 88.40765953 C73.01867644 90.68976093 72.9858345 92.97086585 72.94824219 95.25268555 C72.93412292 96.54756393 72.92000366 97.84244232 72.90545654 99.17655945 C72.5 102.3125 72.5 102.3125 71.15093994 104.22848511 C66.94803987 106.98812897 60.33937224 105.7764578 55.5 105.75 C54.20320313 105.76998047 52.90640625 105.78996094 51.5703125 105.81054688 C50.33023438 105.80990234 49.09015625 105.80925781 47.8125 105.80859375 C46.10513672 105.81137329 46.10513672 105.81137329 44.36328125 105.81420898 C41.5 105.3125 41.5 105.3125 39.6237793 103.75708008 C38.08284587 100.4050561 38.12724609 97.31621212 38.20703125 93.703125 C38.21127609 92.97631531 38.21552094 92.24950562 38.21989441 91.50067139 C38.2366387 89.18756496 38.27428115 86.87534145 38.3125 84.5625 C38.32755242 82.99089803 38.34123985 81.41928236 38.35351562 79.84765625 C38.3839723 76.00199337 38.44269607 72.15823066 38.5 68.3125 C31.24 68.3125 23.98 68.3125 16.5 68.3125 C16.55220703 71.94185547 16.55220703 71.94185547 16.60546875 75.64453125 C16.62886435 77.98769958 16.64708085 80.33085491 16.66479492 82.67407227 C16.67988243 84.30271223 16.70035506 85.93131156 16.72631836 87.55981445 C16.76270449 89.90065535 16.7797262 92.24095919 16.79296875 94.58203125 C16.80845261 95.31025589 16.82393646 96.03848053 16.83988953 96.78877258 C16.84082968 99.61213167 16.80153198 101.78765224 15.3762207 104.26855469 C10.8014507 106.81399601 4.58582717 105.77780522 -0.5 105.75 C-1.79679688 105.76998047 -3.09359375 105.78996094 -4.4296875 105.81054688 C-5.66976562 105.80990234 -6.90984375 105.80925781 -8.1875 105.80859375 C-9.89486328 105.81137329 -9.89486328 105.81137329 -11.63671875 105.81420898 C-14.5 105.3125 -14.5 105.3125 -16.15667725 103.8506012 C-18.18152927 100.02480481 -17.90174883 96.46690657 -17.85644531 92.20117188 C-17.85848969 91.28042374 -17.86053406 90.3596756 -17.86264038 89.411026 C-17.86564836 86.36756529 -17.84716982 83.32464633 -17.828125 80.28125 C-17.82506716 78.16662734 -17.82319123 76.05200267 -17.82244873 73.93737793 C-17.81784546 69.50553682 -17.80341886 65.07387739 -17.78125 60.64208984 C-17.75296775 54.9590876 -17.74203837 49.27622847 -17.7375679 43.59316254 C-17.73341217 39.22660895 -17.72359338 34.86008433 -17.71169281 30.49354553 C-17.70599256 28.39795666 -17.70123305 26.30236502 -17.69742584 24.20677185 C-17.69055571 21.27907416 -17.6769195 18.35148962 -17.66113281 15.42382812 C-17.66001495 14.55617325 -17.65889709 13.68851837 -17.65774536 12.79457092 C-17.65203522 11.99550827 -17.64632507 11.19644562 -17.64044189 10.37316895 C-17.63746723 9.68148872 -17.63449257 8.9898085 -17.63142776 8.27716827 C-17.48995953 6.1624085 -17.16054422 4.32704879 -16.5 2.3125 C-11.82188011 -1.06547231 -5.49566934 -0.01552449 0 0 Z " fill="#000000" transform="translate(175.5,12.6875)"/>
<path d="M0 0 C2.68395527 2.41555975 2.97531884 3.83031703 3.5 7.4375 C3 11 3 11 0.9375 13.9375 C-2.72903411 16.51187502 -4.60406563 16.63940864 -9 16 C-12.1850357 14.23984869 -12.83296972 13.50109084 -14 10 C-18.15096454 10.24417438 -20.45370849 10.56544994 -23.75 13.1875 C-27.17715521 17.47144402 -29.32485995 20.72520473 -29.0625 26.3125 C-28.36744899 31.08087319 -26.12844842 34.34863469 -23.27734375 38.15234375 C-22 40 -22 40 -22 42 C-21.39414063 41.55269531 -20.78828125 41.10539062 -20.1640625 40.64453125 C-9.95161025 33.27585416 -2.02135689 28.23043099 11 30 C18.10335166 31.99928772 23.52767447 37.13406008 27.44140625 43.25390625 C30.81848461 49.53426392 32.53175093 56.05267514 34 63 C34.78761719 63.13019531 35.57523438 63.26039062 36.38671875 63.39453125 C39 64 39 64 40.8125 65.6875 C42.3863876 68.75243901 42.48701495 70.59089535 42 74 C40.4375 76.8125 40.4375 76.8125 38 79 C34.50540538 79.93605213 32.15394952 80.3742539 28.6875 79.25 C27 78 27 78 25 75 C24.734375 73.0625 24.734375 73.0625 24.75 71 C24.74226563 69.9790625 24.74226563 69.9790625 24.734375 68.9375 C25 67 25 67 27 64 C25.75482035 62.86966702 24.50363348 61.74594964 23.25 60.625 C22.55390625 59.99851563 21.8578125 59.37203125 21.140625 58.7265625 C16.41810475 54.91752245 12.61442389 54.49341517 6.62890625 54.62890625 C3.77315166 54.83854136 3.77315166 54.83854136 1 57 C-3.85537928 64.28306892 -5.16979167 71.67517337 -5.125 80.3125 C-5.12886719 81.04662109 -5.13273437 81.78074219 -5.13671875 82.53710938 C-5.1304299 86.08087776 -4.98595931 89.47738725 -4.4296875 92.98046875 C-4.21699219 94.47513672 -4.21699219 94.47513672 -4 96 C-5.68083398 97.68083398 -7.87128127 97.38772092 -10.1796875 97.61328125 C-11.25476563 97.72736328 -12.32984375 97.84144531 -13.4375 97.95898438 C-15.68933332 98.19056496 -17.94193694 98.41480042 -20.1953125 98.63085938 C-30.32459661 99.72899859 -38.9382819 102.85973224 -48.0625 107.25 C-53.78712871 110 -53.78712871 110 -56 110 C-56.24234375 109.17757812 -56.4846875 108.35515625 -56.734375 107.5078125 C-61.5481152 90.49670034 -61.5481152 90.49670034 -72.4375 77 C-75.91885537 75.6414223 -78.29394529 75.47056361 -82 76 C-89.54612443 81.61572051 -91.61975157 90.13735219 -93 99 C-92.360625 99.28875 -91.72125 99.5775 -91.0625 99.875 C-89 101 -89 101 -88 103 C-87.53551384 110.31565705 -87.53551384 110.31565705 -89.171875 112.7265625 C-91.6762615 114.47107105 -93.46915352 114.43342628 -96.5 114.4375 C-97.4590625 114.45683594 -98.418125 114.47617188 -99.40625 114.49609375 C-102 114 -102 114 -103.81640625 112.19140625 C-105.56397704 108.95580489 -105.45156482 106.61251855 -105 103 C-103.125 100.5625 -103.125 100.5625 -101 99 C-100.34 99 -99.68 99 -99 99 C-99.10828125 97.24236328 -99.10828125 97.24236328 -99.21875 95.44921875 C-100.27168557 77.86594414 -100.27168557 77.86594414 -100 70 C-99.98324219 69.236875 -99.96648437 68.47375 -99.94921875 67.6875 C-99.46590424 59.73352414 -95.73204234 51.56826971 -90 46 C-84.65908297 42.37964685 -80.38739841 41.39167634 -74 42 C-71.65908634 42.63954054 -69.32428339 43.30243596 -67 44 C-66.84144531 42.81664062 -66.68289062 41.63328125 -66.51953125 40.4140625 C-64.75055087 28.07689303 -62.39843843 18.92883927 -53.453125 9.7890625 C-44.9788092 3.60874939 -37.22956452 3.48623097 -26.9375 3.75 C-25.58140675 3.77010709 -24.22528453 3.78835039 -22.86914062 3.8046875 C-19.57867514 3.85152687 -16.28972165 3.91711138 -13 4 C-12.71640625 3.36835938 -12.4328125 2.73671875 -12.140625 2.0859375 C-11 -0 -11 -0 -8.75 -1.375 C-5.13864586 -2.1957623 -3.3179799 -1.58685995 0 0 Z " fill="#000000" transform="translate(106,9)"/>
<path d="M0 0 C0.82458206 -0.00960754 1.64916412 -0.01921509 2.49873352 -0.02911377 C3.39142441 -0.03336365 4.2841153 -0.03761353 5.20385742 -0.04199219 C6.12140305 -0.04769226 7.03894867 -0.05339233 7.98429871 -0.05926514 C9.92864832 -0.06872152 11.87301401 -0.07525164 13.81738281 -0.07910156 C16.78698872 -0.08879428 19.7558988 -0.11980622 22.7253418 -0.15136719 C24.61400956 -0.15789852 26.50268228 -0.16314848 28.39135742 -0.16699219 C29.27797562 -0.17933899 30.16459381 -0.19168579 31.07807922 -0.20440674 C39.3743884 -0.17455435 39.3743884 -0.17455435 42.99682617 3.16113281 C46.16513763 8.15068652 48.13519217 13.82615088 50.16088867 19.35253906 C50.43903412 20.10147934 50.71717957 20.85041962 51.00375366 21.62205505 C51.58563926 23.1918165 52.16533898 24.76238983 52.74291992 26.33374023 C53.62156658 28.72292695 54.50785773 31.10917188 55.39526367 33.49511719 C55.96342452 35.03075713 56.53114782 36.56655905 57.09838867 38.10253906 C57.35987701 38.8068959 57.62136536 39.51125275 57.89077759 40.23695374 C58.61234343 42.20536431 59.30869128 44.18082263 59.99682617 46.16113281 C60.38040283 47.24410645 60.76397949 48.32708008 61.15917969 49.44287109 C62.31139921 54.55750337 62.30213921 59.48461217 62.29760742 64.71191406 C62.30189255 65.80706833 62.30617767 66.9022226 62.31059265 68.03056335 C62.31631497 70.33425201 62.31685176 72.63795873 62.3125 74.94165039 C62.30932107 78.47931181 62.33289127 82.01615163 62.3581543 85.55371094 C62.36042548 87.79394426 62.36113163 90.03417983 62.36010742 92.27441406 C62.36931717 93.33582108 62.37852692 94.39722809 62.38801575 95.49079895 C62.38178696 96.46909164 62.37555817 97.44738434 62.36914062 98.45532227 C62.36977005 99.31801224 62.37039948 100.18070221 62.37104797 101.0695343 C62.24755478 101.75976181 62.12406158 102.44998932 61.99682617 103.16113281 C58.49552882 105.49533105 57.04220778 105.41824108 52.90307617 105.42675781 C51.70811523 105.42933594 50.5131543 105.43191406 49.28198242 105.43457031 C48.03288086 105.42683594 46.7837793 105.41910156 45.49682617 105.41113281 C43.62317383 105.42273438 43.62317383 105.42273438 41.71166992 105.43457031 C39.91922852 105.43070313 39.91922852 105.43070313 38.09057617 105.42675781 C36.99422852 105.42450195 35.89788086 105.42224609 34.76831055 105.41992188 C31.99682617 105.16113281 31.99682617 105.16113281 28.99682617 103.16113281 C28.65625 100.82275391 28.65625 100.82275391 28.70385742 97.93457031 C28.7113501 97.00563965 28.71884277 96.07670898 28.7265625 95.11962891 C28.75387451 93.9370752 28.78118652 92.75452148 28.80932617 91.53613281 C28.87120117 87.78238281 28.93307617 84.02863281 28.99682617 80.16113281 C21.07682617 80.16113281 13.15682617 80.16113281 4.99682617 80.16113281 C5.11519559 86.89245912 5.11519559 86.89245912 5.26708984 93.62304688 C5.27458252 94.46577148 5.2820752 95.30849609 5.28979492 96.17675781 C5.30550537 97.0355957 5.32121582 97.89443359 5.33740234 98.77929688 C4.90530466 101.80119294 4.24410162 103.08647546 1.99682617 105.16113281 C-0.7746582 105.6628418 -0.7746582 105.6628418 -4.09692383 105.65722656 C-5.29188477 105.65787109 -6.4868457 105.65851563 -7.71801758 105.65917969 C-8.96711914 105.63919922 -10.2162207 105.61921875 -11.50317383 105.59863281 C-12.75227539 105.60572266 -14.00137695 105.6128125 -15.28833008 105.62011719 C-24.4854272 105.55562837 -24.4854272 105.55562837 -26.64915466 103.90698242 C-28.3382785 101.72905447 -28.39821949 100.55981237 -28.43896484 97.82348633 C-28.4581044 96.94729141 -28.47724396 96.0710965 -28.4969635 95.16835022 C-28.50030197 94.21850754 -28.50364044 93.26866486 -28.50708008 92.29003906 C-28.51706528 91.29850327 -28.52705048 90.30696747 -28.53733826 89.28538513 C-28.55255205 87.17459276 -28.55956304 85.06372801 -28.55908203 82.95288086 C-28.56553064 79.79377951 -28.61965541 76.63802069 -28.67700195 73.47949219 C-28.79491657 59.68660676 -26.81460707 48.06288519 -22.00317383 35.16113281 C-21.74307526 34.44039581 -21.48297668 33.71965881 -21.21499634 32.9770813 C-19.76762294 28.97052873 -18.24393226 25.0024092 -16.64331055 21.0546875 C-15.85695358 19.10861711 -15.09185888 17.15495539 -14.32739258 15.20019531 C-13.82210423 13.93668508 -13.3156418 12.67364357 -12.80786133 11.41113281 C-12.14246338 9.74824219 -12.14246338 9.74824219 -11.46362305 8.05175781 C-8.81377263 2.80698534 -5.88092072 0.05526392 0 0 Z M13.99682617 30.16113281 C8.97820308 40.80156094 8.97820308 40.80156094 6.99682617 52.16113281 C13.26682617 52.16113281 19.53682617 52.16113281 25.99682617 52.16113281 C24.65276065 44.5447615 22.57627645 37.44870593 19.99682617 30.16113281 C18.01682617 30.16113281 16.03682617 30.16113281 13.99682617 30.16113281 Z " fill="#000000" transform="translate(292.003173828125,12.8388671875)"/>
<path d="M0 0 C0.76469101 -0.00540298 1.52938202 -0.01080597 2.31724548 -0.01637268 C4.84144969 -0.02886584 7.36451458 -0.01236595 9.88867188 0.00561523 C11.64457255 0.00546026 13.40047357 0.00397152 15.15637207 0.00120544 C18.83503353 -0.00017881 22.51330522 0.01238369 26.19189453 0.03515625 C30.90652365 0.06354108 35.62050515 0.06080397 40.33518219 0.04806614 C43.96060718 0.0411101 47.58588256 0.04889736 51.21128845 0.06132317 C52.94961473 0.06583841 54.68795706 0.06617383 56.42628479 0.06225777 C58.85613915 0.05934625 61.28510206 0.07584885 63.71484375 0.09765625 C64.43288681 0.0931546 65.15092987 0.08865295 65.89073181 0.08401489 C68.97928036 0.13005534 71.08543268 0.34947097 73.8037262 1.87095642 C76.01342242 4.19024445 75.85955694 5.7746097 75.85351562 8.93920898 C75.85416016 9.99881836 75.85480469 11.05842773 75.85546875 12.15014648 C75.83548828 13.25616211 75.81550781 14.36217773 75.79492188 15.50170898 C75.80201172 16.60772461 75.80910156 17.71374023 75.81640625 18.85327148 C75.75230671 26.9593973 75.75230671 26.9593973 74.16493225 29.1394043 C71.6998459 30.99731822 70.09728361 30.8454636 67.03320312 30.79467773 C66.00517578 30.78500977 64.97714844 30.7753418 63.91796875 30.76538086 C62.31018555 30.72767578 62.31018555 30.72767578 60.66992188 30.68920898 C59.04473633 30.66890625 59.04473633 30.66890625 57.38671875 30.64819336 C54.70978783 30.61281542 52.0338535 30.56345087 49.35742188 30.50170898 C49.36408371 31.39706863 49.37074554 32.29242828 49.37760925 33.21492004 C49.43768087 41.64630748 49.48337615 50.0776232 49.51285839 58.5091753 C49.52852499 62.84410024 49.54978121 67.17884858 49.58374023 71.51367188 C49.61629852 75.69578987 49.6342674 79.87773783 49.6420536 84.05997276 C49.64760349 85.6568132 49.65844094 87.25364417 49.67461205 88.85041237 C49.69633996 91.08439992 49.69939083 93.31768187 49.69799805 95.55175781 C49.70465988 96.82416824 49.71132172 98.09657867 49.71818542 99.407547 C49.35742188 102.50170898 49.35742188 102.50170898 48.02082825 104.41181946 C45.3692841 106.1491521 42.95664056 105.89117054 39.82617188 105.90014648 C38.54097656 105.90401367 37.25578125 105.90788086 35.93164062 105.91186523 C35.26310059 105.90558105 34.59456055 105.89929688 33.90576172 105.89282227 C31.86422858 105.87676253 29.8246748 105.8926757 27.78320312 105.91186523 C26.49800781 105.90799805 25.2128125 105.90413086 23.88867188 105.90014648 C22.70853516 105.8967627 21.52839844 105.89337891 20.3125 105.88989258 C17.35742188 105.50170898 17.35742188 105.50170898 15.6940155 104.41181946 C13.66072707 101.50607051 13.99844436 99.0664138 14.0168457 95.55175781 C14.01618858 94.49771507 14.01618858 94.49771507 14.01551819 93.42237854 C14.0176074 91.10088263 14.04094369 88.7801099 14.06445312 86.45874023 C14.07004863 84.84877416 14.07431894 83.23880297 14.07731628 81.62882996 C14.08876869 77.39215991 14.11823909 73.15579859 14.15142822 68.91925049 C14.18212069 64.59586768 14.19581985 60.27243497 14.2109375 55.94897461 C14.24310858 47.46641109 14.2943095 38.98409844 14.35742188 30.50170898 C13.71192383 30.51741943 13.06642578 30.53312988 12.40136719 30.54931641 C9.47014158 30.61176701 6.53905608 30.65073129 3.60742188 30.68920898 C2.59164063 30.7143457 1.57585937 30.73948242 0.52929688 30.76538086 C-0.45039063 30.77504883 -1.43007813 30.7847168 -2.43945312 30.79467773 C-3.34018555 30.81038818 -4.24091797 30.82609863 -5.16894531 30.84228516 C-8.14002528 30.43321917 -9.48935862 29.55883423 -11.64257812 27.50170898 C-12.16015625 25.11328125 -12.16015625 25.11328125 -12.17382812 22.31811523 C-12.17898438 21.30813477 -12.18414062 20.2981543 -12.18945312 19.25756836 C-12.17398437 18.20375977 -12.15851563 17.14995117 -12.14257812 16.06420898 C-12.15804688 15.01426758 -12.17351562 13.96432617 -12.18945312 12.88256836 C-12.18429687 11.87129883 -12.17914063 10.8600293 -12.17382812 9.81811523 C-12.16931641 8.89458252 -12.16480469 7.9710498 -12.16015625 7.01953125 C-10.79728549 0.38967929 -5.88882911 -0.07928914 0 0 Z " fill="#020202" transform="translate(375.642578125,12.498291015625)"/>
</svg>
